<svg width="21" height="20" viewBox="0 0 21 20" fill="none" xmlns="http://www.w3.org/2000/svg">
<path d="M0.875 0C0.642936 0 0.420376 0.0658481 0.256282 0.183058C0.0921874 0.300269 0 0.45924 0 0.625C0 0.79076 0.0921874 0.949731 0.256282 1.06694C0.420376 1.18415 0.642936 1.25 0.875 1.25H20.125C20.3571 1.25 20.5796 1.18415 20.7437 1.06694C20.9078 0.949731 21 0.79076 21 0.625C21 0.45924 20.9078 0.300269 20.7437 0.183058C20.5796 0.0658481 20.3571 0 20.125 0H0.875ZM0.875 18.75C0.642936 18.75 0.420376 18.8158 0.256282 18.9331C0.0921874 19.0503 0 19.2092 0 19.375C0 19.5408 0.0921874 19.6997 0.256282 19.8169C0.420376 19.9342 0.642936 20 0.875 20H20.125C20.3571 20 20.5796 19.9342 20.7437 19.8169C20.9078 19.6997 21 19.5408 21 19.375C21 19.2092 20.9078 19.0503 20.7437 18.9331C20.5796 18.8158 20.3571 18.75 20.125 18.75H0.875ZM9.8805 3.9325C9.96178 3.8743 10.0583 3.82812 10.1646 3.79661C10.2709 3.7651 10.3849 3.74888 10.5 3.74888C10.6151 3.74888 10.7291 3.7651 10.8354 3.79661C10.9417 3.82812 11.0382 3.8743 11.1195 3.9325L14.6195 6.4325C14.7009 6.49061 14.7654 6.5596 14.8094 6.63552C14.8534 6.71144 14.8761 6.79282 14.8761 6.875C14.8761 6.95718 14.8534 7.03856 14.8094 7.11448C14.7654 7.1904 14.7009 7.25939 14.6195 7.3175C14.5381 7.37561 14.4416 7.42171 14.3353 7.45315C14.229 7.4846 14.1151 7.50079 14 7.50079C13.8849 7.50079 13.771 7.4846 13.6647 7.45315C13.5584 7.42171 13.4619 7.37561 13.3805 7.3175L11.375 5.88375V14.1163L13.3805 12.6825C13.5448 12.5651 13.7676 12.4992 14 12.4992C14.2324 12.4992 14.4552 12.5651 14.6195 12.6825C14.7838 12.7999 14.8761 12.959 14.8761 13.125C14.8761 13.291 14.7838 13.4501 14.6195 13.5675L11.1195 16.0675C11.0382 16.1257 10.9417 16.1719 10.8354 16.2034C10.7291 16.2349 10.6151 16.2511 10.5 16.2511C10.3849 16.2511 10.2709 16.2349 10.1646 16.2034C10.0583 16.1719 9.96178 16.1257 9.8805 16.0675L6.3805 13.5675C6.2162 13.4501 6.12389 13.291 6.12389 13.125C6.12389 12.959 6.2162 12.7999 6.3805 12.6825C6.5448 12.5651 6.76764 12.4992 7 12.4992C7.23236 12.4992 7.4552 12.5651 7.6195 12.6825L9.625 14.1163V5.88375L7.6195 7.3175C7.4552 7.43486 7.23236 7.50079 7 7.50079C6.76764 7.50079 6.5448 7.43486 6.3805 7.3175C6.2162 7.20014 6.12389 7.04097 6.12389 6.875C6.12389 6.70903 6.2162 6.54986 6.3805 6.4325L9.8805 3.9325Z" fill="#1D5D9B"/>
</svg>
