<svg width="21" height="22" viewBox="0 0 21 22" fill="none" xmlns="http://www.w3.org/2000/svg">
<path d="M0.760742 20.625C0.760742 20.8571 0.82659 21.0796 0.943801 21.2437C1.06101 21.4078 1.21998 21.5 1.38574 21.5C1.5515 21.5 1.71047 21.4078 1.82768 21.2437C1.94489 21.0796 2.01074 20.8571 2.01074 20.625L2.01074 1.375C2.01074 1.14293 1.94489 0.920376 1.82768 0.756281C1.71047 0.592186 1.5515 0.5 1.38574 0.5C1.21998 0.5 1.06101 0.592186 0.9438 0.756281C0.826589 0.920376 0.760741 1.14293 0.760741 1.375L0.760742 20.625ZM19.5107 20.625C19.5107 20.8571 19.5766 21.0796 19.6938 21.2437C19.811 21.4078 19.97 21.5 20.1357 21.5C20.3015 21.5 20.4605 21.4078 20.5777 21.2437C20.6949 21.0796 20.7607 20.8571 20.7607 20.625L20.7607 1.375C20.7607 1.14293 20.6949 0.920375 20.5777 0.75628C20.4605 0.592185 20.3015 0.499999 20.1357 0.499999C19.97 0.499999 19.811 0.592185 19.6938 0.75628C19.5766 0.920375 19.5107 1.14293 19.5107 1.375L19.5107 20.625ZM4.69324 11.6195C4.63504 11.5382 4.58886 11.4417 4.55735 11.3354C4.52584 11.2291 4.50962 11.1151 4.50962 11C4.50962 10.8849 4.52584 10.7709 4.55735 10.6646C4.58886 10.5583 4.63504 10.4618 4.69324 10.3805L7.19324 6.8805C7.25135 6.79915 7.32034 6.73461 7.39626 6.69058C7.47219 6.64656 7.55356 6.62389 7.63574 6.6239C7.71792 6.62389 7.7993 6.64656 7.87522 6.69058C7.95115 6.73461 8.02013 6.79915 8.07824 6.8805C8.13635 6.96185 8.18245 7.05843 8.2139 7.16473C8.24534 7.27102 8.26153 7.38495 8.26153 7.5C8.26153 7.61505 8.24534 7.72898 8.2139 7.83527C8.18245 7.94157 8.13635 8.03815 8.07824 8.1195L6.64449 10.125L14.877 10.125L13.4432 8.1195C13.3259 7.9552 13.26 7.73236 13.26 7.5C13.26 7.26764 13.3259 7.0448 13.4432 6.8805C13.5606 6.7162 13.7198 6.6239 13.8857 6.6239C14.0517 6.6239 14.2109 6.7162 14.3282 6.8805L16.8282 10.3805C16.8864 10.4618 16.9326 10.5583 16.9641 10.6646C16.9956 10.7709 17.0119 10.8849 17.0119 11C17.0119 11.1151 16.9956 11.2291 16.9641 11.3354C16.9326 11.4417 16.8864 11.5382 16.8282 11.6195L14.3282 15.1195C14.2109 15.2838 14.0517 15.3761 13.8857 15.3761C13.7198 15.3761 13.5606 15.2838 13.4432 15.1195C13.3259 14.9552 13.26 14.7324 13.26 14.5C13.26 14.2676 13.3259 14.0448 13.4432 13.8805L14.877 11.875L6.64449 11.875L8.07824 13.8805C8.1956 14.0448 8.26153 14.2676 8.26153 14.5C8.26153 14.7324 8.1956 14.9552 8.07824 15.1195C7.96088 15.2838 7.80171 15.3761 7.63574 15.3761C7.46977 15.3761 7.3106 15.2838 7.19324 15.1195L4.69324 11.6195Z" fill="#1D5D9B"/>
</svg>
