<svg width="22" height="19" viewBox="0 0 22 19" fill="none" xmlns="http://www.w3.org/2000/svg">
<path d="M13.2409 3.99877C13.2409 4.52925 13.0047 5.038 12.5843 5.4131C12.164 5.7882 11.5938 5.99893 10.9993 5.99893C10.4049 5.99893 9.83472 5.7882 9.41436 5.4131C8.99399 5.038 8.75783 4.52925 8.75783 3.99877C8.75783 3.46829 8.99399 2.95954 9.41436 2.58444C9.83472 2.20934 10.4049 1.99861 10.9993 1.99861C11.5938 1.99861 12.164 2.20934 12.5843 2.58444C13.0047 2.95954 13.2409 3.46829 13.2409 3.99877ZM14.8828 5.99893C15.2758 5.39078 15.4826 4.70103 15.4824 3.99898C15.4821 3.29693 15.2748 2.6073 14.8813 1.99939C14.4877 1.39147 13.9218 0.886675 13.2404 0.535717C12.559 0.18476 11.7861 0 10.9993 0C10.2126 0 9.43967 0.18476 8.75827 0.535717C8.07686 0.886675 7.51097 1.39147 7.11743 1.99939C6.7239 2.6073 6.51658 3.29693 6.51632 3.99898C6.51605 4.70103 6.72285 5.39078 7.11592 5.99893H3.22802C2.96338 5.99888 2.70726 6.0824 2.505 6.23469C2.30275 6.38697 2.16741 6.59821 2.12295 6.831L0.0159294 17.8319C-0.0114774 17.9754 -0.00344633 18.1225 0.0394617 18.263C0.0823697 18.4034 0.15912 18.5338 0.264353 18.645C0.369585 18.7563 0.500762 18.8457 0.648723 18.907C0.796684 18.9683 0.95786 19 1.121 19H20.8788C21.0421 19.0001 21.2034 18.9683 21.3514 18.9069C21.4995 18.8456 21.6307 18.7561 21.736 18.6447C21.8412 18.5334 21.9179 18.4028 21.9608 18.2623C22.0036 18.1217 22.0115 17.9745 21.9839 17.8309L19.8769 6.83C19.8321 6.59723 19.6965 6.38609 19.4941 6.23398C19.2916 6.08187 19.0353 5.99861 18.7707 5.99893H14.8828ZM10.9993 7.9991H17.8259L19.5496 16.9998H2.45021L4.17506 7.9991H10.9993Z" fill="#1D5D9B"/>
</svg>
