<svg width="430" height="132" viewBox="0 0 430 132" fill="none" xmlns="http://www.w3.org/2000/svg">
    <path
        d="M118.941 50.2782C110.711 50.4477 99.301 63.3036 99.465 71.2669C99.5389 74.8534 102.362 76.9389 107.019 76.843C112.081 76.7387 115.37 74.0925 119.43 74.0089C123.525 73.9245 126.93 76.4328 131.948 76.3295C136.605 76.2336 139.34 74.0337 139.266 70.4472C139.102 62.4839 127.172 50.1087 118.941 50.2782ZM103.65 49.2968C102.498 45.7581 99.1299 43.5205 96.1264 44.2979C93.123 45.0753 91.622 48.574 92.7733 52.1126C93.9246 55.6512 97.2929 57.8889 100.296 57.1115C103.3 56.3341 104.801 52.8354 103.65 49.2968ZM112.387 46.9804C115.576 46.0779 117.092 41.7492 115.773 37.3124C114.454 32.8756 110.799 30.0116 107.609 30.9141C104.42 31.8167 102.904 36.1453 104.223 40.5821C105.542 45.019 109.198 47.884 112.387 46.9804ZM141.49 43.3646C138.457 42.7115 135.185 45.0859 134.179 48.669C133.174 52.252 134.818 55.6859 137.851 56.339C140.884 56.9921 144.156 54.6176 145.162 51.0346C146.167 47.4516 144.523 44.0177 141.49 43.3646ZM125.355 46.7133C128.579 47.4838 132.113 44.4717 133.248 39.9843C134.384 35.497 132.691 31.2354 129.467 30.4639C126.243 29.6925 122.709 32.7056 121.573 37.1929C120.438 41.6803 122.131 45.9429 125.355 46.7133Z"
        fill="#75C2F6" fill-opacity="0.35" />
    <path
        d="M375.193 48.9341C362.588 43.129 335.818 54.2192 330.202 66.4151C327.672 71.9079 330.417 77.1493 337.549 80.4338C345.301 84.0041 352.239 82.4144 358.456 85.2778C364.728 88.1661 368.044 94.4775 375.728 98.0164C382.86 101.301 388.627 99.9792 391.157 94.4864C396.773 82.2905 387.799 54.7392 375.193 48.9341ZM352.729 36.1829C353.589 29.9692 350.13 24.0953 345.003 23.0619C339.876 22.0286 335.023 26.2283 334.162 32.442C333.302 38.6557 336.761 44.5297 341.888 45.563C347.015 46.5964 351.868 42.3967 352.729 36.1829ZM367.683 39.1057C373.184 40.0863 378.671 34.6392 379.939 26.9399C381.206 19.2407 377.774 12.2058 372.272 11.2252C366.771 10.2445 361.284 15.6916 360.016 23.3909C358.749 31.0902 362.182 38.1273 367.683 39.1057ZM414.477 55.0582C410.359 51.8341 403.648 53.0244 399.484 57.7168C395.322 62.41 395.285 68.8276 399.403 72.0518C403.521 75.2759 410.232 74.0856 414.396 69.3932C418.558 64.7 418.595 58.2824 414.477 55.0582ZM387.544 48.2523C391.866 51.7952 399.443 49.8307 404.469 43.8625C409.496 37.8943 410.068 30.1855 405.747 26.641C401.426 23.0965 393.848 25.0626 388.822 31.0308C383.795 36.999 383.223 44.7093 387.544 48.2523Z"
        fill="#75C2F6" fill-opacity="0.5" />
    <path
        d="M238.974 93.7831C229.896 96.581 221.314 114.462 224.021 123.245C225.24 127.201 229.034 128.62 234.17 127.037C239.753 125.316 242.564 121.337 247.042 119.957C251.558 118.565 256.131 120.268 261.666 118.562C266.802 116.979 269.138 113.671 267.919 109.715C265.212 100.932 248.052 90.9851 238.974 93.7831ZM221.697 97.5431C219.298 93.9821 214.851 92.5676 211.765 94.3825C208.68 96.1974 208.124 100.555 210.523 104.116C212.922 107.677 217.369 109.092 220.455 107.277C223.541 105.462 224.097 101.104 221.697 97.5431ZM230.656 92.2027C233.909 90.1899 234.218 84.9067 231.348 80.4024C228.477 75.8981 223.514 73.8795 220.262 75.8923C217.009 77.9051 216.7 83.1884 219.57 87.6926C222.44 92.1969 227.405 94.2163 230.656 92.2027ZM261.799 78.9626C258.227 79.1997 255.349 82.8717 255.37 87.1659C255.391 91.4598 258.304 94.7484 261.876 94.5113C265.448 94.2741 268.326 90.6021 268.305 86.3079C268.284 82.014 265.371 78.7254 261.799 78.9626ZM244.96 87.7942C248.781 87.6267 251.747 83.1642 251.584 77.8256C251.42 72.487 248.191 68.2957 244.369 68.4621C240.547 68.6285 237.582 73.0921 237.745 78.4307C237.908 83.7693 241.138 87.9617 244.96 87.7942Z"
        fill="#75C2F6" fill-opacity="0.4" />
    <path
        d="M29.2738 81.8862C22.6722 79.3861 9.4803 85.9599 7.0614 92.347C5.97197 95.2236 7.54991 97.7863 11.285 99.2008C15.3452 100.738 18.8091 99.6866 22.0654 100.92C25.35 102.164 27.2556 105.249 31.2801 106.773C35.0152 108.188 37.8948 107.313 38.9843 104.437C41.4032 98.0496 35.8753 84.3863 29.2738 81.8862ZM17.4237 76.2099C17.6407 73.0265 15.6776 70.1681 13.0395 69.825C10.4015 69.4819 8.08744 71.7845 7.87039 74.9679C7.65335 78.1514 9.61643 81.0097 12.2545 81.3529C14.8926 81.696 17.2066 79.3934 17.4237 76.2099ZM25.1153 77.1644C27.9415 77.4676 30.5332 74.5096 30.9043 70.5579C31.2754 66.6063 29.2848 63.1579 26.4586 62.8547C23.6324 62.5516 21.0407 65.5096 20.6696 69.4612C20.2985 73.4129 22.2896 76.8624 25.1153 77.1644ZM49.4238 83.6053C47.2202 82.1148 43.857 82.956 41.91 85.4843C39.9638 88.0129 40.172 91.2707 42.3756 92.7611C44.5791 94.2516 47.9423 93.4104 49.8894 90.8821C51.8356 88.3535 51.6274 85.0957 49.4238 83.6053ZM35.5168 81.1037C37.8348 82.7487 41.6103 81.484 43.95 78.2779C46.2897 75.0718 46.3073 71.1399 43.9896 69.494C41.6719 67.8481 37.8961 69.1136 35.5564 72.3198C33.2167 75.5259 33.1988 79.4586 35.5168 81.1037Z"
        fill="#75C2F6" fill-opacity="0.35" />
</svg>