<svg width="234" height="233" viewBox="0 0 234 233" fill="none" xmlns="http://www.w3.org/2000/svg">
<g filter="url(#filter0_d_209_475)">
<path d="M33.6472 54.8064C33.6472 47.8686 36.4033 41.2149 41.3091 36.3091C46.2149 31.4033 52.8686 28.6472 59.8064 28.6472H71.697C78.6042 28.6433 85.2295 25.9077 90.1273 21.0373L98.4507 12.7139C100.882 10.2692 103.772 8.32917 106.955 7.00534C110.139 5.68151 113.552 5 117 5C120.448 5 123.861 5.68151 127.045 7.00534C130.228 8.32917 133.118 10.2692 135.549 12.7139L143.873 21.0373C148.772 25.9124 155.406 28.6472 162.303 28.6472H174.194C181.131 28.6472 187.785 31.4033 192.691 36.3091C197.597 41.2149 200.353 47.8686 200.353 54.8064V66.697C200.353 73.5935 203.088 80.2284 207.963 85.1273L216.286 93.4507C218.731 95.8817 220.671 98.772 221.995 101.955C223.318 105.139 224 108.552 224 112C224 115.448 223.318 118.861 221.995 122.045C220.671 125.228 218.731 128.118 216.286 130.549L207.963 138.873C203.092 143.77 200.357 150.396 200.353 157.303V169.194C200.353 176.131 197.597 182.785 192.691 187.691C187.785 192.597 181.131 195.353 174.194 195.353H162.303C155.396 195.357 148.77 198.092 143.873 202.963L135.549 211.286C133.118 213.731 130.228 215.671 127.045 216.995C123.861 218.318 120.448 219 117 219C113.552 219 110.139 218.318 106.955 216.995C103.772 215.671 100.882 213.731 98.4507 211.286L90.1273 202.963C85.2295 198.092 78.6042 195.357 71.697 195.353H59.8064C52.8686 195.353 46.2149 192.597 41.3091 187.691C36.4033 182.785 33.6472 176.131 33.6472 169.194V157.303C33.6433 150.396 30.9077 143.77 26.0373 138.873L17.7139 130.549C15.2692 128.118 13.3292 125.228 12.0053 122.045C10.6815 118.861 10 115.448 10 112C10 108.552 10.6815 105.139 12.0053 101.955C13.3292 98.772 15.2692 95.8817 17.7139 93.4507L26.0373 85.1273C30.9077 80.2295 33.6433 73.6042 33.6472 66.697V54.8064Z" fill="#C0C0C0" stroke="white" stroke-width="8.91174" stroke-linecap="round" stroke-linejoin="round"/>
<path d="M64.9992 140L93.6192 110.12C95.2392 108.38 96.6192 106.76 97.7592 105.26C98.8992 103.76 99.7692 102.26 100.369 100.76C100.969 99.26 101.269 97.7 101.269 96.08C101.269 94.94 101.059 93.83 100.639 92.75C100.219 91.67 99.5892 90.71 98.7492 89.87C97.9092 89.03 96.8892 88.37 95.6892 87.89C94.4892 87.35 93.1092 87.08 91.5492 87.08C89.3292 87.08 87.4092 87.62 85.7892 88.7C84.2292 89.72 82.9992 91.19 82.0992 93.11C81.2592 95.03 80.8392 97.25 80.8392 99.77H68.2392C68.2392 95.27 69.1392 91.22 70.9392 87.62C72.7392 84.02 75.3792 81.17 78.8592 79.07C82.3992 76.91 86.7192 75.83 91.8192 75.83C95.5992 75.83 98.8992 76.43 101.719 77.63C104.599 78.77 106.969 80.3 108.829 82.22C110.749 84.08 112.159 86.15 113.059 88.43C114.019 90.71 114.499 92.99 114.499 95.27C114.499 98.63 113.689 101.78 112.069 104.72C110.449 107.66 108.319 110.33 105.679 112.73L89.2992 128.21H115.669V140H64.9992Z" fill="white"/>
<path d="M138.984 99.56C138.984 98.088 138.696 96.968 138.12 96.2C137.544 95.432 136.616 95.048 135.336 95.048C134.472 95.048 133.704 95.24 133.032 95.624C132.36 95.976 131.848 96.488 131.496 97.16C131.144 97.832 130.968 98.632 130.968 99.56V113H124.728V90.92H130.968V94.28C131.64 93.032 132.52 92.088 133.608 91.448C134.728 90.776 136.072 90.44 137.64 90.44C140.264 90.44 142.216 91.192 143.496 92.696C144.776 94.168 145.416 96.232 145.416 98.888V113H138.984V99.56ZM168.197 75.56H174.437V113H168.197V75.56ZM150.053 101.96C150.053 99.496 150.549 97.416 151.541 95.72C152.533 93.992 153.845 92.68 155.477 91.784C157.109 90.888 158.837 90.44 160.661 90.44C162.517 90.44 164.149 90.904 165.557 91.832C166.997 92.76 168.117 94.088 168.917 95.816C169.749 97.512 170.165 99.56 170.165 101.96C170.165 104.328 169.749 106.376 168.917 108.104C168.117 109.832 166.997 111.16 165.557 112.088C164.149 113.016 162.517 113.48 160.661 113.48C158.837 113.48 157.109 113.032 155.477 112.136C153.845 111.24 152.533 109.928 151.541 108.2C150.549 106.472 150.053 104.392 150.053 101.96ZM156.485 101.96C156.485 103.272 156.757 104.408 157.301 105.368C157.845 106.328 158.581 107.064 159.509 107.576C160.437 108.088 161.429 108.344 162.485 108.344C163.413 108.344 164.309 108.104 165.173 107.624C166.069 107.112 166.789 106.376 167.333 105.416C167.909 104.456 168.197 103.304 168.197 101.96C168.197 100.616 167.909 99.464 167.333 98.504C166.789 97.544 166.069 96.824 165.173 96.344C164.309 95.832 163.413 95.576 162.485 95.576C161.429 95.576 160.437 95.832 159.509 96.344C158.581 96.856 157.845 97.592 157.301 98.552C156.757 99.512 156.485 100.648 156.485 101.96Z" fill="white"/>
</g>
<defs>
<filter id="filter0_d_209_475" x="0.891771" y="0.544189" width="232.216" height="232.216" filterUnits="userSpaceOnUse" color-interpolation-filters="sRGB">
<feFlood flood-opacity="0" result="BackgroundImageFix"/>
<feColorMatrix in="SourceAlpha" type="matrix" values="0 0 0 0 0 0 0 0 0 0 0 0 0 0 0 0 0 0 127 0" result="hardAlpha"/>
<feOffset dy="4.65217"/>
<feGaussianBlur stdDeviation="2.32609"/>
<feComposite in2="hardAlpha" operator="out"/>
<feColorMatrix type="matrix" values="0 0 0 0 0 0 0 0 0 0 0 0 0 0 0 0 0 0 0.25 0"/>
<feBlend mode="normal" in2="BackgroundImageFix" result="effect1_dropShadow_209_475"/>
<feBlend mode="normal" in="SourceGraphic" in2="effect1_dropShadow_209_475" result="shape"/>
</filter>
</defs>
</svg>
