<svg width="234" height="233" viewBox="0 0 234 233" fill="none" xmlns="http://www.w3.org/2000/svg">
<g filter="url(#filter0_d_209_468)">
<path d="M33.6472 54.8064C33.6472 47.8686 36.4033 41.2149 41.3091 36.3091C46.2149 31.4033 52.8686 28.6472 59.8064 28.6472H71.697C78.6042 28.6433 85.2295 25.9077 90.1273 21.0373L98.4507 12.7139C100.882 10.2692 103.772 8.32917 106.955 7.00534C110.139 5.68151 113.552 5 117 5C120.448 5 123.861 5.68151 127.045 7.00534C130.228 8.32917 133.118 10.2692 135.549 12.7139L143.873 21.0373C148.772 25.9124 155.406 28.6472 162.303 28.6472H174.194C181.131 28.6472 187.785 31.4033 192.691 36.3091C197.597 41.2149 200.353 47.8686 200.353 54.8064V66.697C200.353 73.5935 203.088 80.2284 207.963 85.1273L216.286 93.4507C218.731 95.8817 220.671 98.772 221.995 101.955C223.318 105.139 224 108.552 224 112C224 115.448 223.318 118.861 221.995 122.045C220.671 125.228 218.731 128.118 216.286 130.549L207.963 138.873C203.092 143.77 200.357 150.396 200.353 157.303V169.194C200.353 176.131 197.597 182.785 192.691 187.691C187.785 192.597 181.131 195.353 174.194 195.353H162.303C155.396 195.357 148.77 198.092 143.873 202.963L135.549 211.286C133.118 213.731 130.228 215.671 127.045 216.995C123.861 218.318 120.448 219 117 219C113.552 219 110.139 218.318 106.955 216.995C103.772 215.671 100.882 213.731 98.4507 211.286L90.1273 202.963C85.2295 198.092 78.6042 195.357 71.697 195.353H59.8064C52.8686 195.353 46.2149 192.597 41.3091 187.691C36.4033 182.785 33.6472 176.131 33.6472 169.194V157.303C33.6433 150.396 30.9077 143.77 26.0373 138.873L17.7139 130.549C15.2692 128.118 13.3292 125.228 12.0053 122.045C10.6815 118.861 10 115.448 10 112C10 108.552 10.6815 105.139 12.0053 101.955C13.3292 98.772 15.2692 95.8817 17.7139 93.4507L26.0373 85.1273C30.9077 80.2295 33.6433 73.6042 33.6472 66.697V54.8064Z" fill="#CD7F32" stroke="white" stroke-width="8.91174" stroke-linecap="round" stroke-linejoin="round"/>
<path d="M135.879 89.92V112H129.783V89.92H135.879ZM142.359 96.4C141.943 96.016 141.511 95.728 141.063 95.536C140.647 95.312 140.119 95.2 139.479 95.2C138.711 95.2 138.055 95.408 137.511 95.824C136.967 96.24 136.551 96.832 136.263 97.6C136.007 98.336 135.879 99.232 135.879 100.288L134.151 98.56C134.151 96.8 134.487 95.248 135.159 93.904C135.831 92.528 136.711 91.44 137.799 90.64C138.887 89.808 140.007 89.392 141.159 89.392C141.959 89.392 142.711 89.536 143.415 89.824C144.151 90.112 144.743 90.544 145.191 91.12L142.359 96.4ZM165.142 74.56H171.382V112H165.142V74.56ZM146.998 100.96C146.998 98.496 147.494 96.416 148.486 94.72C149.478 92.992 150.79 91.68 152.422 90.784C154.054 89.888 155.782 89.44 157.606 89.44C159.462 89.44 161.094 89.904 162.502 90.832C163.942 91.76 165.062 93.088 165.862 94.816C166.694 96.512 167.11 98.56 167.11 100.96C167.11 103.328 166.694 105.376 165.862 107.104C165.062 108.832 163.942 110.16 162.502 111.088C161.094 112.016 159.462 112.48 157.606 112.48C155.782 112.48 154.054 112.032 152.422 111.136C150.79 110.24 149.478 108.928 148.486 107.2C147.494 105.472 146.998 103.392 146.998 100.96ZM153.43 100.96C153.43 102.272 153.702 103.408 154.246 104.368C154.79 105.328 155.526 106.064 156.454 106.576C157.382 107.088 158.374 107.344 159.43 107.344C160.358 107.344 161.254 107.104 162.118 106.624C163.014 106.112 163.734 105.376 164.278 104.416C164.854 103.456 165.142 102.304 165.142 100.96C165.142 99.616 164.854 98.464 164.278 97.504C163.734 96.544 163.014 95.824 162.118 95.344C161.254 94.832 160.358 94.576 159.43 94.576C158.374 94.576 157.382 94.832 156.454 95.344C155.526 95.856 154.79 96.592 154.246 97.552C153.702 98.512 153.43 99.648 153.43 100.96Z" fill="white"/>
<path d="M92.7694 109.31V103.1C94.6294 103.1 96.2794 102.86 97.7194 102.38C99.2194 101.9 100.479 101.24 101.499 100.4C102.519 99.5 103.299 98.51 103.839 97.43C104.439 96.29 104.739 95.12 104.739 93.92C104.739 92.42 104.439 91.1 103.839 89.96C103.239 88.82 102.369 87.95 101.229 87.35C100.089 86.75 98.6194 86.45 96.8194 86.45C94.2994 86.45 92.1694 87.23 90.4294 88.79C88.7494 90.29 87.9094 92.21 87.9094 94.55H75.9394C75.9394 90.95 76.8094 87.77 78.5494 85.01C80.3494 82.19 82.8094 79.97 85.9294 78.35C89.0494 76.73 92.6794 75.92 96.8194 75.92C101.199 75.92 104.919 76.7 107.979 78.26C111.099 79.82 113.469 81.89 115.089 84.47C116.709 87.05 117.519 89.93 117.519 93.11C117.519 96.53 116.439 99.47 114.279 101.93C112.119 104.33 109.179 106.16 105.459 107.42C101.739 108.68 97.5094 109.31 92.7694 109.31ZM96.2794 141.26C92.6794 141.26 89.4694 140.72 86.6494 139.64C83.8294 138.56 81.4294 137.09 79.4494 135.23C77.4694 133.31 75.9394 131.15 74.8594 128.75C73.7794 126.29 73.2394 123.71 73.2394 121.01H86.0194C86.0194 123.05 86.4994 124.79 87.4594 126.23C88.4194 127.67 89.7094 128.78 91.3294 129.56C92.9494 130.28 94.7194 130.64 96.6394 130.64C98.6194 130.64 100.329 130.31 101.769 129.65C103.269 128.93 104.439 127.91 105.279 126.59C106.119 125.27 106.539 123.62 106.539 121.64C106.539 120.2 106.239 118.88 105.639 117.68C105.039 116.42 104.139 115.37 102.939 114.53C101.799 113.69 100.359 113.06 98.6194 112.64C96.9394 112.16 94.9894 111.92 92.7694 111.92V105.08C96.6094 105.08 100.119 105.41 103.299 106.07C106.539 106.73 109.359 107.81 111.759 109.31C114.159 110.75 116.019 112.61 117.339 114.89C118.659 117.11 119.319 119.81 119.319 122.99C119.319 126.59 118.359 129.77 116.439 132.53C114.579 135.29 111.909 137.45 108.429 139.01C105.009 140.51 100.959 141.26 96.2794 141.26Z" fill="white"/>
</g>
<defs>
<filter id="filter0_d_209_468" x="0.891771" y="0.544189" width="232.216" height="232.216" filterUnits="userSpaceOnUse" color-interpolation-filters="sRGB">
<feFlood flood-opacity="0" result="BackgroundImageFix"/>
<feColorMatrix in="SourceAlpha" type="matrix" values="0 0 0 0 0 0 0 0 0 0 0 0 0 0 0 0 0 0 127 0" result="hardAlpha"/>
<feOffset dy="4.65217"/>
<feGaussianBlur stdDeviation="2.32609"/>
<feComposite in2="hardAlpha" operator="out"/>
<feColorMatrix type="matrix" values="0 0 0 0 0 0 0 0 0 0 0 0 0 0 0 0 0 0 0.25 0"/>
<feBlend mode="normal" in2="BackgroundImageFix" result="effect1_dropShadow_209_468"/>
<feBlend mode="normal" in="SourceGraphic" in2="effect1_dropShadow_209_468" result="shape"/>
</filter>
</defs>
</svg>
