<svg width="20" height="20" viewBox="0 0 20 20" fill="none" xmlns="http://www.w3.org/2000/svg">
<path d="M9 8.98002C9 8.71481 9.10536 8.46045 9.29289 8.27292C9.48043 8.08538 9.73478 7.98002 10 7.98002C10.2652 7.98002 10.5196 8.08538 10.7071 8.27292C10.8946 8.46045 11 8.71481 11 8.98002V14.98C11 15.2452 10.8946 15.4996 10.7071 15.6871C10.5196 15.8747 10.2652 15.98 10 15.98C9.73478 15.98 9.48043 15.8747 9.29289 15.6871C9.10536 15.4996 9 15.2452 9 14.98V8.98002ZM10 4.05103C9.73478 4.05103 9.48043 4.15638 9.29289 4.34392C9.10536 4.53145 9 4.78581 9 5.05103C9 5.31624 9.10536 5.5706 9.29289 5.75813C9.48043 5.94567 9.73478 6.05102 10 6.05102C10.2652 6.05102 10.5196 5.94567 10.7071 5.75813C10.8946 5.5706 11 5.31624 11 5.05103C11 4.78581 10.8946 4.53145 10.7071 4.34392C10.5196 4.15638 10.2652 4.05103 10 4.05103Z" fill="#1D5D9B"/>
<path fill-rule="evenodd" clip-rule="evenodd" d="M10 0C4.477 0 0 4.477 0 10C0 15.523 4.477 20 10 20C15.523 20 20 15.523 20 10C20 4.477 15.523 0 10 0ZM2 10C2 12.1217 2.84285 14.1566 4.34315 15.6569C5.84344 17.1571 7.87827 18 10 18C12.1217 18 14.1566 17.1571 15.6569 15.6569C17.1571 14.1566 18 12.1217 18 10C18 7.87827 17.1571 5.84344 15.6569 4.34315C14.1566 2.84285 12.1217 2 10 2C7.87827 2 5.84344 2.84285 4.34315 4.34315C2.84285 5.84344 2 7.87827 2 10Z" fill="#1D5D9B"/>
</svg>
